<svg width="166" height="52" viewBox="0 0 166 52" fill="none" xmlns="http://www.w3.org/2000/svg">
<path d="M72.296 34.168C71.176 34.168 70.168 33.976 69.272 33.592C68.376 33.192 67.672 32.632 67.16 31.912C66.648 31.192 66.392 30.352 66.392 29.392H69.32C69.384 30.112 69.664 30.704 70.16 31.168C70.672 31.632 71.384 31.864 72.296 31.864C73.24 31.864 73.976 31.64 74.504 31.192C75.032 30.728 75.296 30.136 75.296 29.416C75.296 28.856 75.128 28.4 74.792 28.048C74.472 27.696 74.064 27.424 73.568 27.232C73.088 27.04 72.416 26.832 71.552 26.608C70.464 26.32 69.576 26.032 68.888 25.744C68.216 25.44 67.64 24.976 67.16 24.352C66.68 23.728 66.44 22.896 66.44 21.856C66.44 20.896 66.68 20.056 67.16 19.336C67.64 18.616 68.312 18.064 69.176 17.68C70.04 17.296 71.04 17.104 72.176 17.104C73.792 17.104 75.112 17.512 76.136 18.328C77.176 19.128 77.752 20.232 77.864 21.64H74.84C74.792 21.032 74.504 20.512 73.976 20.08C73.448 19.648 72.752 19.432 71.888 19.432C71.104 19.432 70.464 19.632 69.968 20.032C69.472 20.432 69.224 21.008 69.224 21.76C69.224 22.272 69.376 22.696 69.68 23.032C70 23.352 70.4 23.608 70.88 23.8C71.36 23.992 72.016 24.2 72.848 24.424C73.952 24.728 74.848 25.032 75.536 25.336C76.24 25.64 76.832 26.112 77.312 26.752C77.808 27.376 78.056 28.216 78.056 29.272C78.056 30.12 77.824 30.92 77.36 31.672C76.912 32.424 76.248 33.032 75.368 33.496C74.504 33.944 73.48 34.168 72.296 34.168ZM86.5164 27.4L92.6124 34H88.9164L84.0204 28.312V34H81.2844V16.24H84.0204V26.56L88.8204 20.776H92.6124L86.5164 27.4ZM106.477 20.776L98.3654 40.216H95.5334L98.2214 33.784L93.0134 20.776H96.0614L99.7814 30.856L103.645 20.776H106.477ZM114.038 34.168C112.918 34.168 111.91 33.976 111.014 33.592C110.118 33.192 109.414 32.632 108.902 31.912C108.39 31.192 108.134 30.352 108.134 29.392H111.062C111.126 30.112 111.406 30.704 111.902 31.168C112.414 31.632 113.126 31.864 114.038 31.864C114.982 31.864 115.718 31.64 116.246 31.192C116.774 30.728 117.038 30.136 117.038 29.416C117.038 28.856 116.87 28.4 116.534 28.048C116.214 27.696 115.806 27.424 115.31 27.232C114.83 27.04 114.158 26.832 113.294 26.608C112.206 26.32 111.318 26.032 110.63 25.744C109.958 25.44 109.382 24.976 108.902 24.352C108.422 23.728 108.182 22.896 108.182 21.856C108.182 20.896 108.422 20.056 108.902 19.336C109.382 18.616 110.054 18.064 110.918 17.68C111.782 17.296 112.782 17.104 113.918 17.104C115.534 17.104 116.854 17.512 117.878 18.328C118.918 19.128 119.494 20.232 119.606 21.64H116.582C116.534 21.032 116.246 20.512 115.718 20.08C115.19 19.648 114.494 19.432 113.63 19.432C112.846 19.432 112.206 19.632 111.71 20.032C111.214 20.432 110.966 21.008 110.966 21.76C110.966 22.272 111.118 22.696 111.422 23.032C111.742 23.352 112.142 23.608 112.622 23.8C113.102 23.992 113.758 24.2 114.59 24.424C115.694 24.728 116.59 25.032 117.278 25.336C117.982 25.64 118.574 26.112 119.054 26.752C119.55 27.376 119.798 28.216 119.798 29.272C119.798 30.12 119.566 30.92 119.102 31.672C118.654 32.424 117.99 33.032 117.11 33.496C116.246 33.944 115.222 34.168 114.038 34.168ZM129.867 20.56C130.875 20.56 131.771 20.776 132.555 21.208C133.355 21.64 133.979 22.28 134.427 23.128C134.891 23.976 135.123 25 135.123 26.2V34H132.411V26.608C132.411 25.424 132.115 24.52 131.523 23.896C130.931 23.256 130.123 22.936 129.099 22.936C128.075 22.936 127.259 23.256 126.651 23.896C126.059 24.52 125.763 25.424 125.763 26.608V34H123.027V16.24H125.763V22.312C126.227 21.752 126.811 21.32 127.515 21.016C128.235 20.712 129.019 20.56 129.867 20.56ZM150.733 27.064C150.733 27.56 150.701 28.008 150.637 28.408H140.533C140.613 29.464 141.005 30.312 141.709 30.952C142.413 31.592 143.277 31.912 144.301 31.912C145.773 31.912 146.813 31.296 147.421 30.064H150.372C149.973 31.28 149.245 32.28 148.189 33.064C147.149 33.832 145.853 34.216 144.301 34.216C143.037 34.216 141.901 33.936 140.893 33.376C139.901 32.8 139.117 32 138.541 30.976C137.981 29.936 137.701 28.736 137.701 27.376C137.701 26.016 137.973 24.824 138.517 23.8C139.077 22.76 139.853 21.96 140.845 21.4C141.853 20.84 143.005 20.56 144.301 20.56C145.549 20.56 146.661 20.832 147.637 21.376C148.613 21.92 149.373 22.688 149.917 23.68C150.461 24.656 150.733 25.784 150.733 27.064ZM147.877 26.2C147.861 25.192 147.501 24.384 146.797 23.776C146.093 23.168 145.221 22.864 144.181 22.864C143.237 22.864 142.429 23.168 141.757 23.776C141.085 24.368 140.685 25.176 140.557 26.2H147.877ZM156.161 16.24V34H153.425V16.24H156.161ZM165.297 23.008H162.849V34H160.089V23.008H158.529V20.776H160.089V19.84C160.089 18.32 160.489 17.216 161.289 16.528C162.105 15.824 163.377 15.472 165.105 15.472V17.752C164.273 17.752 163.689 17.912 163.353 18.232C163.017 18.536 162.849 19.072 162.849 19.84V20.776H165.297V23.008Z" fill="#FA7275"/>
<rect opacity="0.2" width="48" height="48" rx="24" fill="#FA7275"/>
<rect x="21" y="20" width="32" height="32" rx="16" fill="#FA7275"/>
</svg>
