<svg width="260" height="82" viewBox="0 0 260 82" fill="none" xmlns="http://www.w3.org/2000/svg">
<path d="M112.71 53.7348C110.964 53.7348 109.392 53.4355 107.995 52.8368C106.599 52.2132 105.501 51.3402 104.703 50.2177C103.905 49.0952 103.506 47.7856 103.506 46.289H108.07C108.17 47.4115 108.607 48.3344 109.38 49.0578C110.178 49.7812 111.288 50.1429 112.71 50.1429C114.182 50.1429 115.329 49.7936 116.152 49.0952C116.975 48.3718 117.387 47.4489 117.387 46.3264C117.387 45.4534 117.125 44.7425 116.601 44.1937C116.102 43.6449 115.466 43.2209 114.693 42.9215C113.945 42.6222 112.897 42.2979 111.55 41.9487C109.854 41.4997 108.469 41.0507 107.397 40.6017C106.349 40.1278 105.451 39.4044 104.703 38.4316C103.955 37.4588 103.58 36.1617 103.58 34.5403C103.58 33.0437 103.955 31.7341 104.703 30.6116C105.451 29.4891 106.499 28.6286 107.846 28.0299C109.193 27.4313 110.752 27.1319 112.523 27.1319C115.042 27.1319 117.1 27.768 118.696 29.0402C120.318 30.2874 121.216 32.0085 121.39 34.2036H116.676C116.601 33.2557 116.152 32.445 115.329 31.7715C114.506 31.098 113.421 30.7613 112.074 30.7613C110.852 30.7613 109.854 31.0731 109.081 31.6967C108.307 32.3203 107.921 33.2183 107.921 34.3907C107.921 35.1889 108.158 35.8499 108.632 36.3737C109.13 36.8726 109.754 37.2717 110.502 37.571C111.251 37.8704 112.273 38.1946 113.57 38.5439C115.292 39.0178 116.688 39.4917 117.761 39.9657C118.859 40.4396 119.782 41.1755 120.53 42.1732C121.303 43.146 121.69 44.4556 121.69 46.1019C121.69 47.424 121.328 48.6712 120.605 49.8435C119.906 51.0159 118.871 51.9638 117.499 52.6872C116.152 53.3856 114.556 53.7348 112.71 53.7348ZM134.88 43.1835L144.383 53.4729H138.621L130.988 44.6053V53.4729H126.723V25.7849H130.988V41.8739L138.472 32.8566H144.383L134.88 43.1835ZM165.999 32.8566L153.352 63.1637H148.937L153.128 53.1362L145.009 32.8566H149.76L155.56 48.5714L161.584 32.8566H165.999ZM177.786 53.7348C176.04 53.7348 174.469 53.4355 173.072 52.8368C171.675 52.2132 170.577 51.3402 169.779 50.2177C168.981 49.0952 168.582 47.7856 168.582 46.289H173.147C173.246 47.4115 173.683 48.3344 174.456 49.0578C175.254 49.7812 176.364 50.1429 177.786 50.1429C179.258 50.1429 180.405 49.7936 181.229 49.0952C182.052 48.3718 182.463 47.4489 182.463 46.3264C182.463 45.4534 182.201 44.7425 181.678 44.1937C181.179 43.6449 180.543 43.2209 179.769 42.9215C179.021 42.6222 177.973 42.2979 176.626 41.9487C174.93 41.4997 173.546 41.0507 172.473 40.6017C171.425 40.1278 170.527 39.4044 169.779 38.4316C169.031 37.4588 168.657 36.1617 168.657 34.5403C168.657 33.0437 169.031 31.7341 169.779 30.6116C170.527 29.4891 171.575 28.6286 172.922 28.0299C174.269 27.4313 175.828 27.1319 177.599 27.1319C180.119 27.1319 182.176 27.768 183.773 29.0402C185.394 30.2874 186.292 32.0085 186.467 34.2036H181.752C181.678 33.2557 181.229 32.445 180.405 31.7715C179.582 31.098 178.497 30.7613 177.15 30.7613C175.928 30.7613 174.93 31.0731 174.157 31.6967C173.384 32.3203 172.997 33.2183 172.997 34.3907C172.997 35.1889 173.234 35.8499 173.708 36.3737C174.207 36.8726 174.83 37.2717 175.579 37.571C176.327 37.8704 177.35 38.1946 178.647 38.5439C180.368 39.0178 181.765 39.4917 182.837 39.9657C183.935 40.4396 184.858 41.1755 185.606 42.1732C186.379 43.146 186.766 44.4556 186.766 46.1019C186.766 47.424 186.404 48.6712 185.681 49.8435C184.983 51.0159 183.947 51.9638 182.575 52.6872C181.229 53.3856 179.632 53.7348 177.786 53.7348ZM202.463 32.5199C204.034 32.5199 205.431 32.8566 206.653 33.5301C207.901 34.2036 208.873 35.2013 209.572 36.5234C210.295 37.8454 210.657 39.4418 210.657 41.3127V53.4729H206.429V41.9487C206.429 40.1029 205.967 38.6935 205.044 37.7207C204.122 36.7229 202.862 36.2241 201.265 36.2241C199.669 36.2241 198.397 36.7229 197.449 37.7207C196.526 38.6935 196.065 40.1029 196.065 41.9487V53.4729H191.799V25.7849H196.065V35.2512C196.788 34.3782 197.698 33.7047 198.796 33.2308C199.918 32.7568 201.141 32.5199 202.463 32.5199ZM234.993 42.6596C234.993 43.4329 234.943 44.1313 234.843 44.7549H219.091C219.216 46.4012 219.827 47.7233 220.924 48.721C222.022 49.7188 223.369 50.2177 224.965 50.2177C227.26 50.2177 228.882 49.2573 229.829 47.3367H234.432C233.808 49.2324 232.673 50.7914 231.027 52.0137C229.405 53.211 227.385 53.8096 224.965 53.8096C222.995 53.8096 221.224 53.3731 219.652 52.5001C218.106 51.6021 216.883 50.3549 215.985 48.7585C215.112 47.1371 214.676 45.2663 214.676 43.146C214.676 41.0258 215.1 39.1675 215.948 37.571C216.821 35.9497 218.031 34.7025 219.577 33.8294C221.149 32.9564 222.945 32.5199 224.965 32.5199C226.911 32.5199 228.645 32.9439 230.166 33.792C231.688 34.6401 232.873 35.8374 233.721 37.384C234.569 38.9055 234.993 40.6641 234.993 42.6596ZM230.54 41.3127C230.515 39.7412 229.954 38.4815 228.857 37.5336C227.759 36.5857 226.4 36.1118 224.778 36.1118C223.307 36.1118 222.047 36.5857 220.999 37.5336C219.952 38.4566 219.328 39.7162 219.128 41.3127H230.54ZM243.456 25.7849V53.4729H239.191V25.7849H243.456ZM257.699 36.3363H253.883V53.4729H249.58V36.3363H247.148V32.8566H249.58V31.3974C249.58 29.0277 250.204 27.3065 251.451 26.2339C252.723 25.1364 254.706 24.5876 257.4 24.5876V28.1422C256.103 28.1422 255.192 28.3916 254.669 28.8905C254.145 29.3644 253.883 30.2001 253.883 31.3974V32.8566H257.699V36.3363Z" fill="white"/>
<rect opacity="0.2" width="74.8323" height="74.8323" rx="37.4161" fill="white"/>
<rect x="32.7391" y="31.1802" width="49.8882" height="49.8882" rx="24.9441" fill="white"/>
</svg>
